<svg xmlns="http://www.w3.org/2000/svg" width="470.11" height="314.11" viewBox="0 0 470.11 314.11"><g transform="translate(-691.89 -290.945)"><circle cx="156" cy="156" r="156" transform="translate(850 292)" fill="rgba(6,151,219,0.1)"/><g transform="translate(691.89 290.945)"><path d="M35.085.2C12.7.2.14,11.717.14,35.406V279.169c0,22.119,11.321,33.7,33.7,33.7h244.81c22.38,0,33.7-10.994,33.7-33.7V35.406C312.353,12.306,301.032.2,277.931.2,277.931.2,35.019.068,35.085.2Z" transform="translate(0.776 0.782)" fill="#0697db" stroke="#eee" stroke-width="0.282"/><g transform="translate(22.446 68.581)" opacity="0.2"><path d="M139.61,10.48c-75.19,0-136.18,20.548-136.18,46,0,20.548,39.918,37.955,95.018,43.845H84.641L39.487,206.472H241.761L200.992,100.329H180.837c55.1-5.89,95.018-23.3,95.018-43.845C275.855,31.028,214.866,10.48,139.61,10.48Z" transform="translate(-3.43 -10.48)" fill="#fff" stroke="#fff" stroke-linecap="round" stroke-linejoin="round" stroke-width="1.058"/></g><path d="M8.2,139.562,54.728,23.93" transform="translate(45.461 132.667)" fill="none" stroke="#fff" stroke-linecap="round" stroke-width="1.927"/><path d="M27.469,40.862h7L33.359,22.67H28.581Zm-2.16,51.7H36.631L35.518,63.439h-9.1Zm-2.16,54.969H38.79l-1.112-30.168H24.262Z" transform="translate(128.343 125.682)" fill="#fff"/><path d="M82.154,98.169C35.626,90.84,3.43,74.938,3.43,56.484c0-25.456,60.99-46,136.18-46,75.256,0,136.245,20.548,136.245,46h0c0,18.127-31.018,33.767-76.106,41.292" transform="translate(19.016 58.101)" fill="none" stroke="#fff" stroke-linecap="round" stroke-linejoin="round" stroke-width="1.542"/><path d="M80.308,139.562,33.78,23.93" transform="translate(187.275 132.667)" fill="none" stroke="#fff" stroke-linecap="round" stroke-width="1.927"/><path d="M0,0H314.11V314.11H0Z" fill="none"/></g><g transform="translate(1002.778 389.641)"><path d="M33,13.5H58.532V39.032" transform="translate(47.243 19.327)" fill="none" stroke="#ff9720" stroke-linecap="round" stroke-linejoin="round" stroke-width="6"/><path d="M4.5,62.416,32.172,34.745a7.279,7.279,0,0,1,10.31,0L54.056,46.319a7.279,7.279,0,0,0,10.31,0L95.685,15" transform="translate(6.442 21.474)" fill="none" stroke="#ff9720" stroke-linecap="round" stroke-linejoin="round" stroke-width="6"/><path d="M0,0H116.717V116.717H0Z" fill="none"/></g></g></svg>