<svg id="Capa_1" enable-background="new 0 0 512 512" height="512" viewBox="0 0 512 512" width="512" xmlns="http://www.w3.org/2000/svg"><g id="XMLID_359_"><path id="XMLID_1103_" d="m424.145 95.984h-95.207l-72.445-75.805-72.443 75.805h-95.207v83.072l-61.3 64.292v268.652h457.902v-268.691l-61.299-63.711v-83.614zm-167.651-32.392 30.958 32.392h-61.914zm137.658 62.386v150.826l-49.789 29.267h-176.892l-48.634-28.869v-151.224zm-305.309 133.42-22.453-13.328 22.453-23.548zm-31.307 222.608v-206.312l101.703 60.37h193.286l102.926-60.501v206.443zm388.928-235.952-22.318 13.119v-36.315z"/><path id="XMLID_1108_" d="m183.87 170.064h145.247v29.994h-145.247z"/><path id="XMLID_1109_" d="m206.589 236.392h99.81v29.994h-99.81z"/><path id="XMLID_1110_" d="m348.203 13.44h48.363v29.994h-48.363z" transform="matrix(.496 -.868 .868 .496 162.933 337.643)"/><path id="XMLID_1111_" d="m459.264 137.413h48.362v29.994h-48.362z" transform="matrix(.907 -.421 .421 .907 -19.268 217.431)"/><path id="XMLID_1112_" d="m461.506 78.759c7.845 0 15.36-6.898 14.997-14.997-.364-8.125-6.589-14.997-14.997-14.997-7.845 0-15.359 6.898-14.997 14.997.364 8.125 6.59 14.997 14.997 14.997z"/><path id="XMLID_1113_" d="m124.618 4.255h29.994v48.363h-29.994z" transform="matrix(.868 -.496 .496 .868 4.287 73.015)"/><path id="XMLID_1114_" d="m13.558 128.228h29.994v48.363h-29.994z" transform="matrix(.421 -.907 .907 .421 -121.732 114.227)"/><path id="XMLID_1135_" d="m50.495 78.759c7.845 0 15.36-6.898 14.997-14.997-.364-8.125-6.589-14.997-14.997-14.997-7.845 0-15.36 6.898-14.997 14.997.364 8.125 6.589 14.997 14.997 14.997z"/><path id="XMLID_1138_" d="m255.41 367.091c-18.586 0-34.469 11.781-40.581 28.267h-16.907v29.994h16.907c6.112 16.486 21.995 28.267 40.581 28.267s34.469-11.781 40.581-28.267h16.907v-29.994h-16.907c-6.112-16.486-21.995-28.267-40.581-28.267zm0 56.534c-7.318 0-13.271-5.953-13.271-13.271s5.953-13.271 13.271-13.271 13.271 5.953 13.271 13.271c-.001 7.318-5.953 13.271-13.271 13.271z"/></g></svg>