<?xml version="1.0" encoding="UTF-8" standalone="no"?>
<svg
   xmlns:dc="http://purl.org/dc/elements/1.1/"
   xmlns:cc="http://creativecommons.org/ns#"
   xmlns:rdf="http://www.w3.org/1999/02/22-rdf-syntax-ns#"
   xmlns:svg="http://www.w3.org/2000/svg"
   xmlns="http://www.w3.org/2000/svg"
   viewBox="0 0 3548.2542 1345.4392"
   height="1345.4392"
   width="3548.2542"
   xml:space="preserve"
   id="svg2"
   version="1.1"><metadata
     id="metadata8"><rdf:RDF><cc:Work
         rdf:about=""><dc:format>image/svg+xml</dc:format><dc:type
           rdf:resource="http://purl.org/dc/dcmitype/StillImage" /></cc:Work></rdf:RDF></metadata><defs
     id="defs6" /><g
     transform="matrix(1.3333333,0,0,-1.3333333,0,1345.4392)"
     id="g10"><path
       id="path12"
       style="fill:#2b2b2a;fill-opacity:1;fill-rule:nonzero;stroke:none"
       d="M 144.2806,861.4511 H 301.6389 V 816.7317 H 196.3973 v -53.6859 h 90.2795 v -44.7194 h -90.2795 v -80.136 H 144.2806 Z M 500.9865,673.6632 h -93.5858 l -14.122,-35.4728 h -54.9748 l 91.4003,223.5969 h 48.9226 l 91.4559,-223.5969 h -54.8065 z m -75.7094,44.3832 h 57.7769 l -27.0672,67.5272 -1.6254,7.2295 h -0.3362 l -1.6251,-7.2295 z m 194.4158,143.4047 h 52.1167 v -90.4476 h 97.3403 v 90.4476 h 52.2287 V 638.1904 h -52.2287 v 88.1499 H 671.8096 V 638.1904 H 619.6929 Z M 975.39,710.9294 h -33.1753 v -72.739 H 890.098 v 223.2607 h 97.9005 c 11.7124,0 22.528,-1.8493 32.3348,-5.4919 9.8631,-3.6986 18.3812,-8.7984 25.554,-15.4669 7.1731,-6.6127 12.7769,-14.514 16.7559,-23.7606 3.9787,-9.2466 5.9961,-19.5018 5.9961,-30.8219 0,-7.8452 -1.0086,-15.2983 -2.9701,-22.2475 -1.9613,-6.9488 -4.7631,-13.2253 -8.3498,-18.9411 -3.6428,-5.716 -8.0135,-10.7036 -13.1692,-15.1307 -5.0995,-4.3711 -10.8717,-8.0136 -17.2043,-10.9837 l 47.1291,-80.4164 h -59.794 z m 10.4791,44.5513 c 4.259,0 8.2941,0.7285 11.9925,2.2413 3.7548,1.4571 7.0047,3.5306 9.7509,6.1646 2.8018,2.6339 4.9876,5.7719 6.6127,9.5266 1.5689,3.6987 2.3536,7.8455 2.3536,12.4407 0,4.4833 -0.7847,8.6301 -2.3536,12.3849 -1.6251,3.8103 -3.8109,7.0608 -6.6127,9.8067 -2.7462,2.7459 -5.9961,4.8753 -9.7509,6.3885 -3.6984,1.5131 -7.7335,2.2977 -11.9925,2.2977 h -43.6544 v -61.251 z m 142.5234,-55.7031 c 4.5955,-2.1858 10.0312,-4.5394 16.2516,-7.0611 6.2762,-2.5217 12.8327,-4.8753 19.7819,-7.0611 7.0049,-2.1852 14.0657,-4.0348 21.3508,-5.4918 7.2853,-1.5129 14.3461,-2.2414 21.1269,-2.2414 7.5654,0 13.8418,0.6166 18.9414,1.9052 5.0995,1.2328 9.2463,2.9704 12.3845,5.2118 3.1944,2.2975 5.4919,4.9314 6.8369,8.0697 1.3448,3.1382 2.0736,6.6126 2.0736,10.4232 0,4.2591 -1.177,7.9016 -3.5306,10.8156 -2.3539,2.9702 -5.828,5.6038 -10.3674,7.9016 -4.5391,2.2975 -10.143,4.4271 -16.7556,6.3884 -6.6127,1.9613 -14.1781,4.1471 -22.752,6.5566 -4.1468,1.1208 -8.8543,2.41 -14.1781,3.8667 -5.3237,1.5131 -10.7036,3.3063 -16.1954,5.436 -5.4357,2.1294 -10.7595,4.7072 -15.971,7.7332 -5.2115,2.9704 -9.8629,6.5007 -13.9538,10.5917 -4.091,4.0348 -7.397,8.6862 -9.8629,14.0099 -2.4658,5.3238 -3.6986,11.376 -3.6986,18.1565 0,11.1518 1.7932,21.183 5.436,30.0931 3.5864,8.9663 9.1341,16.5317 16.6436,22.752 7.5093,6.2765 17.0359,11.0399 28.58,14.2901 11.5441,3.3063 25.3296,4.9314 41.3008,4.9314 8.07,0 15.9151,-0.6163 23.4805,-1.7932 7.5093,-1.2331 14.7943,-2.802 21.7432,-4.7633 6.9491,-1.9616 13.6176,-4.203 19.9502,-6.6685 6.3323,-2.4659 12.3846,-4.8756 18.2126,-7.2854 l -13.9535,-43.2065 c -2.0739,1.0091 -4.7634,2.1297 -8.1258,3.4747 -3.3622,1.2887 -7.117,2.634 -11.2641,4.0349 -4.1471,1.3447 -8.5739,2.6898 -13.2811,4.0909 -4.7075,1.3448 -9.4709,2.5776 -14.2903,3.5864 -4.8192,1.0647 -9.5264,1.9055 -14.1778,2.5778 -4.6511,0.6166 -9.0224,0.9528 -13.0572,0.9528 -7.005,0 -12.7769,-0.5604 -17.316,-1.7932 -4.5394,-1.1773 -8.1258,-2.8582 -10.7598,-4.9315 -2.6336,-2.0738 -4.4832,-4.4271 -5.4918,-7.0614 -1.0647,-2.6336 -1.569,-5.3237 -1.569,-8.0132 0,-3.867 1.2328,-7.1731 3.6987,-9.9751 2.4655,-2.746 5.828,-5.1557 10.0868,-7.2289 4.259,-2.0177 9.3027,-3.699 15.0746,-5.1557 5.828,-1.4009 12.1045,-2.7462 18.8856,-3.9229 11.6002,-2.8579 22.3596,-5.9961 32.1664,-9.3588 9.8628,-3.418 18.381,-7.7894 25.4979,-13.1689 7.1169,-5.3238 12.6649,-11.9926 16.6436,-20.0064 3.979,-7.9574 5.9961,-17.8764 5.9961,-29.7006 0,-11.264 -2.4655,-21.2388 -7.397,-29.8128 -4.9314,-8.5742 -11.656,-15.8031 -20.2864,-21.6873 -8.5737,-5.828 -18.773,-10.2552 -30.5413,-13.1695 -11.7683,-2.9698 -24.4894,-4.4827 -38.1626,-4.4827 -10.2554,0 -19.8941,0.7282 -28.8606,2.0733 -9.0221,1.3447 -17.316,3.1382 -24.8814,5.2676 -7.6212,2.1294 -14.5701,4.4833 -20.7904,7.1169 -6.2204,2.634 -11.7683,5.2118 -16.5878,7.7338 z m 433.1996,-30.1493 c -4.8756,-5.0436 -10.4232,-9.7506 -16.5316,-14.1777 -6.1642,-4.4833 -12.8333,-8.35 -20.0622,-11.6002 -7.2289,-3.3064 -14.9066,-5.8842 -23.0882,-7.8458 -8.1258,-1.9051 -16.6998,-2.8579 -25.666,-2.8579 -11.2641,0 -22.1355,1.4012 -32.5029,4.203 -10.423,2.802 -20.1181,6.6688 -29.1405,11.7124 -9.0224,5.0432 -17.204,11.1518 -24.601,18.2688 -7.3973,7.1169 -13.7299,15.0185 -18.9975,23.7044 -5.3238,8.6862 -9.4145,18.0445 -12.3288,28.0196 -2.8578,9.919 -4.3148,20.3426 -4.3148,31.214 0,10.8156 1.457,21.183 4.3148,31.1579 2.9143,9.9751 7.005,19.3337 12.3288,28.0199 5.2676,8.6859 11.6002,16.5875 18.9975,23.6486 7.397,7.0608 15.5786,13.113 24.601,18.2126 9.0224,5.0995 18.7175,9.0224 29.1405,11.7683 10.3674,2.7459 21.2388,4.0907 32.5029,4.0907 8.8543,0 17.316,-0.8963 25.2737,-2.6895 8.0135,-1.7935 15.5792,-4.3152 22.64,-7.4535 7.1169,-3.194 13.8416,-7.0049 20.0622,-11.4882 6.2203,-4.483 12.0484,-9.3586 17.3721,-14.7385 l -31.6624,-33.6234 c -6.4443,8.0697 -14.4023,14.3461 -23.8167,18.7172 -9.4147,4.3713 -19.3337,6.5568 -29.8689,6.5568 -9.6387,0 -18.7172,-1.8493 -27.2353,-5.4921 -8.5737,-3.6987 -15.9713,-8.7421 -22.3597,-15.1867 -6.3323,-6.5004 -11.3199,-14.1216 -15.0182,-22.9201 -3.6428,-8.8543 -5.4919,-18.3806 -5.4919,-28.692 0,-10.3113 1.8491,-19.8379 5.4919,-28.692 3.6983,-8.7984 8.6859,-16.4196 15.0182,-22.92 6.3884,-6.4449 13.786,-11.4883 22.3597,-15.1869 8.5181,-3.6426 17.5966,-5.4919 27.2353,-5.4919 5.1556,0 10.2551,0.5604 15.2427,1.7374 5.0434,1.1205 9.919,2.802 14.5704,4.9872 4.6513,2.1856 8.9659,4.8756 13.0569,7.9577 4.0348,3.1383 7.6774,6.6688 10.9837,10.5914 z m 67.0941,191.8228 h 52.1169 v -90.4476 h 97.3401 v 90.4476 h 52.2289 V 638.1904 h -52.2289 v 88.1499 h -97.3401 v -88.1499 h -52.1169 z m 411.5684,0 h 52.0045 V 724.3228 c 0,-13.2814 -2.2975,-25.4979 -6.9489,-36.6497 -4.6514,-11.1517 -11.264,-20.8465 -19.7821,-28.9726 -8.5737,-8.1814 -18.8292,-14.5139 -30.8775,-19.0531 -12.0484,-4.5394 -25.498,-6.8368 -40.4045,-6.8368 -13.7855,0 -26.6746,2.1293 -38.6669,6.3325 -11.9366,4.203 -22.3599,10.3114 -31.1581,18.2126 -8.7982,7.9575 -15.747,17.5403 -20.7904,28.8601 -5.0437,11.2641 -7.5654,23.9851 -7.5654,38.107 v 137.1283 h 51.8924 V 724.1547 c 0,-6.6687 1.0086,-12.8891 3.0263,-18.6052 2.0171,-5.7719 4.9876,-10.7033 8.9101,-14.9065 3.8668,-4.1468 8.6862,-7.4531 14.402,-9.8629 5.7722,-2.4094 12.4407,-3.5864 19.95,-3.5864 7.3414,0 13.8418,1.177 19.5579,3.5303 5.7161,2.3539 10.4794,5.6599 14.4581,9.8631 3.9226,4.203 6.8927,9.1344 8.9102,14.8505 2.0735,5.716 3.0823,11.8803 3.0823,18.5488 z m 118.0341,0 h 52.0606 V 682.9098 h 93.5858 v -44.7194 h -145.6464 z m 202.1491,0 h 157.3585 v -44.7194 h -105.2416 v -45.6721 h 90.2793 v -44.6632 h -90.2793 v -43.4866 h 106.6987 v -44.7194 h -158.8156 z" /><g
       id="g14"><path
         id="path16"
         style="fill:#0072a3;fill-opacity:1;fill-rule:evenodd;stroke:none"
         d="M 144.2806,595.3085 H 598.0371 V 141.552 H 144.2806 Z m 119.8111,-53.1854 h 81.2492 V 263.4806 h 146.056 V 193.6879 H 264.0917 Z" /><path
         id="path18"
         style="fill:#0072a3;fill-opacity:1;fill-rule:nonzero;stroke:none"
         d="m 1540.1645,542.1231 -134.5116,-216.4597 0.2616,-131.9755 h -81.2491 v 131.7135 l -133.9867,216.7217 h 94.5431 l 79.6754,-142.7329 h 0.7869 l 79.6739,142.7329 z m 351.3016,-293.074 h -146.056 l -22.0399,-55.3612 h -85.7965 l 142.645,348.9605 h 76.3512 l 142.7329,-348.9605 h -85.5349 z m -118.1566,69.2674 h 90.1696 l -42.2431,105.3882 -2.5361,11.2824 h -0.5236 l -2.5376,-11.2824 z" /><path
         id="path20"
         style="fill:#0072a3;fill-opacity:1;fill-rule:evenodd;stroke:none"
         d="m 2065.4969,595.3085 h 453.7565 V 141.552 h -453.7565 z m 119.8111,-53.1854 h 81.2492 V 263.4806 h 146.0559 V 193.6879 H 2185.308 Z" /><path
         id="path22"
         style="fill:#0072a3;fill-opacity:1;fill-rule:nonzero;stroke:none"
         d="m 897.9052,220.426 c -0.085,1.9162 -0.1307,3.8293 -0.1307,5.764 0,51.1183 25.1104,96.3643 63.6472,124.0897 -0.8068,1.4414 -1.6132,2.8967 -2.4305,4.3671 -10.6123,19.1307 -22.5515,40.6562 -52.5035,64.1999 -14.959,-2.5217 -30.3191,-3.8347 -45.9936,-3.8347 -15.6736,0 -31.0532,1.313 -46.0253,3.8347 -29.9497,-23.5466 -41.8881,-45.0669 -52.5013,-64.1971 -0.8141,-1.4681 -1.62,-2.9202 -2.4236,-4.3563 38.5327,-27.7421 63.625,-72.985 63.625,-124.1033 0,-1.9347 -0.0244,-3.8265 -0.1103,-5.7396 -47.4644,11.9392 -86.0998,46.0814 -104.2115,90.735 -14.0201,-5.7844 -29.9497,-9.0479 -43.9341,-10.8774 22.6752,-61.5682 75.1167,-108.7435 139.8855,-124.0526 14.6741,-3.4784 29.9786,-5.305 45.6956,-5.305 15.717,0 30.9971,1.8266 45.65,5.305 64.7674,15.3091 117.2103,62.4844 139.8849,124.0526 -13.9722,1.8295 -29.8873,5.0902 -43.8979,10.8698 -18.1306,-44.6514 -56.7643,-78.7913 -104.2259,-90.7518" /><g
         id="g24"><path
           id="path26"
           style="fill:#2b2b2a;fill-opacity:1;fill-rule:nonzero;stroke:none"
           d="M 835.1181,565.3862 C 737.8087,552.3996 662.7883,469.097 662.7883,368.2553 c 0,-17.6059 2.2768,-34.668 6.5917,-50.9096 14.9619,1.7543 51.1699,7.6974 64.2226,24.7382 16.6292,21.7049 24.4792,57.3296 76.6678,95.6628 20.9225,15.3706 22.6352,27.0796 18.4709,32.7379 -7.6094,10.3853 -26.7744,14.2679 -44.5542,-0.9108 -25.8448,-22.0723 -55.7886,-38.2898 -56.7195,-38.7887 0.4762,1.8008 23.9148,84.2785 109.6016,105.2892 0,0 9.7548,2.6824 14.0337,10.0026 -0.4663,2.0438 -0.7472,4.2092 -0.801,6.5081 -0.0587,2.3839 0.1768,4.718 0.6834,6.963 -4.3756,5.4743 -14.2214,5.8224 -15.8672,5.8382" /><path
           id="path28"
           style="fill:#2b2b2a;fill-opacity:1;fill-rule:nonzero;stroke:none"
           d="m 885.8407,565.3862 c -2.1464,-0.0212 -18.233,-0.6054 -17.9513,-12.3811 0.3022,-12.6168 16.001,-16.9308 16.001,-16.9308 85.6865,-21.0107 109.1231,-103.4884 109.6025,-105.2892 -0.9352,0.4989 -30.8767,16.7164 -56.7213,38.7887 -17.7798,15.1787 -36.9448,11.2961 -44.5572,0.9108 -4.1604,-5.6583 -2.4486,-17.3673 18.4739,-32.7379 52.1878,-38.3332 60.0387,-73.9579 76.6692,-95.6628 13.051,-17.0408 49.2591,-22.9839 64.2204,-24.7382 4.314,16.2416 6.5911,33.3037 6.5911,50.9096 0,100.8417 -75.0184,184.1443 -172.3283,197.1309" /></g></g></g></svg>